<mxfile host="app.diagrams.net" agent="Mozilla/5.0 (Macintosh; Intel Mac OS X 10.15; rv:134.0) Gecko/20100101 Firefox/134.0" version="26.0.4">
  <diagram name="Сторінка-1" id="tiGgTBYrbzyOw9EDbtSv">
    <mxGraphModel dx="1406" dy="619" grid="1" gridSize="10" guides="1" tooltips="1" connect="1" arrows="1" fold="1" page="1" pageScale="1" pageWidth="827" pageHeight="1169" math="0" shadow="0">
      <root>
        <mxCell id="0" />
        <mxCell id="1" parent="0" />
        <mxCell id="uTFoMUdclXn3XAftul-3-5" value="" style="edgeStyle=orthogonalEdgeStyle;rounded=0;orthogonalLoop=1;jettySize=auto;html=1;" parent="1" source="uTFoMUdclXn3XAftul-3-1" target="uTFoMUdclXn3XAftul-3-3" edge="1">
          <mxGeometry relative="1" as="geometry" />
        </mxCell>
        <mxCell id="vAZqn0laKuKAjrhJO28l-2" value="" style="edgeStyle=orthogonalEdgeStyle;rounded=0;orthogonalLoop=1;jettySize=auto;html=1;exitX=1;exitY=0.5;exitDx=0;exitDy=0;" edge="1" parent="1" source="uTFoMUdclXn3XAftul-3-3" target="vAZqn0laKuKAjrhJO28l-1">
          <mxGeometry relative="1" as="geometry" />
        </mxCell>
        <mxCell id="uTFoMUdclXn3XAftul-3-1" value="створив лінк" style="rounded=0;whiteSpace=wrap;html=1;" parent="1" vertex="1">
          <mxGeometry x="30" y="40" width="120" height="60" as="geometry" />
        </mxCell>
        <mxCell id="uTFoMUdclXn3XAftul-3-7" value="" style="edgeStyle=orthogonalEdgeStyle;rounded=0;orthogonalLoop=1;jettySize=auto;html=1;" parent="1" source="uTFoMUdclXn3XAftul-3-2" target="uTFoMUdclXn3XAftul-3-6" edge="1">
          <mxGeometry relative="1" as="geometry" />
        </mxCell>
        <mxCell id="uTFoMUdclXn3XAftul-3-2" value="перейшов по лінку" style="rounded=0;whiteSpace=wrap;html=1;" parent="1" vertex="1">
          <mxGeometry x="670" y="40" width="120" height="60" as="geometry" />
        </mxCell>
        <mxCell id="uTFoMUdclXn3XAftul-3-3" value="/deep-links GET якщо він створений отримав якщо ні створився і отримав" style="rounded=0;whiteSpace=wrap;html=1;" parent="1" vertex="1">
          <mxGeometry x="30" y="130" width="130" height="60" as="geometry" />
        </mxCell>
        <mxCell id="uTFoMUdclXn3XAftul-3-11" value="" style="edgeStyle=orthogonalEdgeStyle;rounded=0;orthogonalLoop=1;jettySize=auto;html=1;" parent="1" source="uTFoMUdclXn3XAftul-3-6" target="uTFoMUdclXn3XAftul-3-8" edge="1">
          <mxGeometry relative="1" as="geometry" />
        </mxCell>
        <mxCell id="uTFoMUdclXn3XAftul-3-6" value="установив програму " style="rounded=0;whiteSpace=wrap;html=1;" parent="1" vertex="1">
          <mxGeometry x="670" y="120" width="120" height="60" as="geometry" />
        </mxCell>
        <mxCell id="uTFoMUdclXn3XAftul-3-13" value="" style="edgeStyle=orthogonalEdgeStyle;rounded=0;orthogonalLoop=1;jettySize=auto;html=1;" parent="1" source="uTFoMUdclXn3XAftul-3-8" target="uTFoMUdclXn3XAftul-3-12" edge="1">
          <mxGeometry relative="1" as="geometry" />
        </mxCell>
        <mxCell id="uTFoMUdclXn3XAftul-3-8" value="отримую deepId від sdk " style="rounded=0;whiteSpace=wrap;html=1;" parent="1" vertex="1">
          <mxGeometry x="671" y="200" width="120" height="60" as="geometry" />
        </mxCell>
        <mxCell id="uTFoMUdclXn3XAftul-3-10" style="edgeStyle=orthogonalEdgeStyle;rounded=0;orthogonalLoop=1;jettySize=auto;html=1;" parent="1" source="uTFoMUdclXn3XAftul-3-9" target="uTFoMUdclXn3XAftul-3-8" edge="1">
          <mxGeometry relative="1" as="geometry">
            <Array as="points">
              <mxPoint x="572" y="240" />
              <mxPoint x="670" y="240" />
              <mxPoint x="670" y="230" />
            </Array>
          </mxGeometry>
        </mxCell>
        <mxCell id="uTFoMUdclXn3XAftul-3-9" value="deepLinkId це id лінка в базі" style="rounded=0;whiteSpace=wrap;html=1;" parent="1" vertex="1">
          <mxGeometry x="500" y="60" width="120" height="60" as="geometry" />
        </mxCell>
        <mxCell id="uTFoMUdclXn3XAftul-3-19" value="" style="edgeStyle=orthogonalEdgeStyle;rounded=0;orthogonalLoop=1;jettySize=auto;html=1;" parent="1" source="uTFoMUdclXn3XAftul-3-12" target="uTFoMUdclXn3XAftul-3-18" edge="1">
          <mxGeometry relative="1" as="geometry" />
        </mxCell>
        <mxCell id="uTFoMUdclXn3XAftul-3-12" value="оновлюю поле deepLinkId для сутності user" style="rounded=0;whiteSpace=wrap;html=1;" parent="1" vertex="1">
          <mxGeometry x="671" y="300" width="120" height="60" as="geometry" />
        </mxCell>
        <mxCell id="uTFoMUdclXn3XAftul-3-15" style="edgeStyle=orthogonalEdgeStyle;rounded=0;orthogonalLoop=1;jettySize=auto;html=1;entryX=1;entryY=0.5;entryDx=0;entryDy=0;" parent="1" source="uTFoMUdclXn3XAftul-3-14" target="uTFoMUdclXn3XAftul-3-8" edge="1">
          <mxGeometry relative="1" as="geometry">
            <Array as="points">
              <mxPoint x="811" y="20" />
              <mxPoint x="811" y="230" />
            </Array>
          </mxGeometry>
        </mxCell>
        <mxCell id="uTFoMUdclXn3XAftul-3-14" value="закодована інформація в deeplink- whoInvated,deepLinkId" style="rounded=0;whiteSpace=wrap;html=1;" parent="1" vertex="1">
          <mxGeometry x="346" width="136" height="80" as="geometry" />
        </mxCell>
        <mxCell id="uTFoMUdclXn3XAftul-3-18" value="робимо POST на /deep-links-downloads щоб створити аналітику завантажень location, deepLinkId" style="rounded=0;whiteSpace=wrap;html=1;" parent="1" vertex="1">
          <mxGeometry x="670" y="380" width="120" height="160" as="geometry" />
        </mxCell>
        <mxCell id="uTFoMUdclXn3XAftul-3-21" value="&lt;div&gt;поле hadPaidSubscriptionViaReferall для індикації знижки щоб знижка активувалася тільки раз &lt;br&gt;&lt;/div&gt;&lt;div&gt;по дефолту false&lt;br&gt;&lt;/div&gt;" style="rounded=0;whiteSpace=wrap;html=1;" parent="1" vertex="1">
          <mxGeometry x="30" y="470" width="190" height="80" as="geometry" />
        </mxCell>
        <mxCell id="uTFoMUdclXn3XAftul-3-23" value="" style="edgeStyle=orthogonalEdgeStyle;rounded=0;orthogonalLoop=1;jettySize=auto;html=1;" parent="1" source="uTFoMUdclXn3XAftul-3-22" target="uTFoMUdclXn3XAftul-3-21" edge="1">
          <mxGeometry relative="1" as="geometry" />
        </mxCell>
        <mxCell id="uTFoMUdclXn3XAftul-3-22" value="приходять вебхуки успішних оплат змінюємо на true тільки якщо юзер має deepLinkId щоб юзер міг отримати знижку навіть якщо він уже колись брав просту підписку" style="rounded=0;whiteSpace=wrap;html=1;" parent="1" vertex="1">
          <mxGeometry x="10" y="360" width="230" height="80" as="geometry" />
        </mxCell>
        <mxCell id="uTFoMUdclXn3XAftul-3-25" value="" style="edgeStyle=orthogonalEdgeStyle;rounded=0;orthogonalLoop=1;jettySize=auto;html=1;" parent="1" source="uTFoMUdclXn3XAftul-3-24" target="uTFoMUdclXn3XAftul-3-22" edge="1">
          <mxGeometry relative="1" as="geometry" />
        </mxCell>
        <mxCell id="uTFoMUdclXn3XAftul-3-24" value="потрібно дати знижку на фронті якщо в сутності юзера deepLinkId не null а також hadPaidSubscriptionReferral = false для ревені кет" style="rounded=0;whiteSpace=wrap;html=1;" parent="1" vertex="1">
          <mxGeometry x="10" y="240" width="210" height="80" as="geometry" />
        </mxCell>
        <mxCell id="vAZqn0laKuKAjrhJO28l-4" value="" style="edgeStyle=orthogonalEdgeStyle;rounded=0;orthogonalLoop=1;jettySize=auto;html=1;" edge="1" parent="1" source="vAZqn0laKuKAjrhJO28l-1" target="vAZqn0laKuKAjrhJO28l-3">
          <mxGeometry relative="1" as="geometry" />
        </mxCell>
        <mxCell id="vAZqn0laKuKAjrhJO28l-1" value="був створений чат з назвою Referral program " style="rounded=0;whiteSpace=wrap;html=1;" vertex="1" parent="1">
          <mxGeometry x="260" y="160" width="120" height="60" as="geometry" />
        </mxCell>
        <mxCell id="vAZqn0laKuKAjrhJO28l-6" value="" style="edgeStyle=orthogonalEdgeStyle;rounded=0;orthogonalLoop=1;jettySize=auto;html=1;" edge="1" parent="1" source="vAZqn0laKuKAjrhJO28l-3" target="vAZqn0laKuKAjrhJO28l-5">
          <mxGeometry relative="1" as="geometry" />
        </mxCell>
        <mxCell id="vAZqn0laKuKAjrhJO28l-3" value="пушимо туди смс з лінком" style="whiteSpace=wrap;html=1;rounded=0;" vertex="1" parent="1">
          <mxGeometry x="260" y="250" width="140" height="70" as="geometry" />
        </mxCell>
        <mxCell id="vAZqn0laKuKAjrhJO28l-5" value="кожного дня 12 год буде приходити смс з аналітикою про програму" style="whiteSpace=wrap;html=1;rounded=0;" vertex="1" parent="1">
          <mxGeometry x="270" y="360" width="120" height="80" as="geometry" />
        </mxCell>
      </root>
    </mxGraphModel>
  </diagram>
</mxfile>
